<svg xmlns="http://www.w3.org/2000/svg" version="1.1" xmlns:xlink="http://www.w3.org/1999/xlink" width="1000" height="1000"><g clip-path="url(#SvgjsClipPath1045)"><rect width="1000" height="1000" fill="#ffffff"></rect><g transform="matrix(1.7578125,0,0,1.7578125,50,50)"><svg xmlns="http://www.w3.org/2000/svg" version="1.1" xmlns:xlink="http://www.w3.org/1999/xlink" width="512" height="512"><svg version="1.0" xmlns="http://www.w3.org/2000/svg" xmlns:xlink="http://www.w3.org/1999/xlink" width="512" height="512" viewBox="0 0 512 512">
    <svg id="global-svg-defs" version="1.0" xmlns="http://www.w3.org/2000/svg" width="0" height="0" viewBox="0 0 340.000000 250.000000" preserveAspectRatio="xMidYMid meet" color-interpolation-filters="sRGB" class="el-tooltip" style="margin: auto;" xmlns:xlink="http://www.w3.org/1999/xlink">
    <defs>
      <pattern id="watermark" patternUnits="userSpaceOnUse" width="100%" height="100%">
        <image xlink:href="https://www.logoai.com/img/watermark/LOGOAI-watermark.png" x="0" y="0" width="100%" height="100%">
        </image>
      </pattern>
                    <linearGradient id="92" x1="0%" y1="0%" x2="100%" y2="0%">
          <stop offset="0%" stop-color="#fa71cd"></stop>
          <stop offset="100%" stop-color="#9b59b6"></stop>
        </linearGradient>
              <linearGradient id="93" x1="0%" y1="0%" x2="100%" y2="0%">
          <stop offset="0%" stop-color="#f9d423"></stop>
          <stop offset="100%" stop-color="#f83600"></stop>
        </linearGradient>
              <linearGradient id="94" x1="0%" y1="0%" x2="100%" y2="0%">
          <stop offset="0%" stop-color="#0064d2"></stop>
          <stop offset="100%" stop-color="#1cb0f6"></stop>
        </linearGradient>
              <linearGradient id="95" x1="0%" y1="0%" x2="100%" y2="0%">
          <stop offset="0%" stop-color="#f00978"></stop>
          <stop offset="100%" stop-color="#3f51b1"></stop>
        </linearGradient>
              <linearGradient id="96" x1="0%" y1="0%" x2="100%" y2="0%">
          <stop offset="0%" stop-color="#7873f5"></stop>
          <stop offset="100%" stop-color="#ec77ab"></stop>
        </linearGradient>
              <linearGradient id="97" x1="0%" y1="0%" x2="100%" y2="0%">
          <stop offset="0%" stop-color="#f9d423"></stop>
          <stop offset="100%" stop-color="#e14fad"></stop>
        </linearGradient>
              <linearGradient id="98" x1="0%" y1="0%" x2="100%" y2="0%">
          <stop offset="0%" stop-color="#009efd"></stop>
          <stop offset="100%" stop-color="#2af598"></stop>
        </linearGradient>
              <linearGradient id="99" x1="0%" y1="0%" x2="100%" y2="0%">
          <stop offset="0%" stop-color="#ffcc00"></stop>
          <stop offset="100%" stop-color="#00b140"></stop>
        </linearGradient>
              <linearGradient id="100" x1="0%" y1="0%" x2="100%" y2="0%">
          <stop offset="0%" stop-color="#d51007"></stop>
          <stop offset="100%" stop-color="#ff8177"></stop>
        </linearGradient>
              <linearGradient id="102" x1="0%" y1="0%" x2="100%" y2="0%">
          <stop offset="0%" stop-color="#a2b6df"></stop>
          <stop offset="100%" stop-color="#0c3483"></stop>
        </linearGradient>
              <linearGradient id="103" x1="0%" y1="0%" x2="100%" y2="0%">
          <stop offset="0%" stop-color="#7ac5d8"></stop>
          <stop offset="100%" stop-color="#eea2a2"></stop>
        </linearGradient>
              <linearGradient id="104" x1="0%" y1="0%" x2="100%" y2="0%">
          <stop offset="0%" stop-color="#00ecbc"></stop>
          <stop offset="100%" stop-color="#007adf"></stop>
        </linearGradient>
          <clipPath id="SvgjsClipPath1045"><rect width="1000" height="1000" x="0" y="0" rx="500" ry="500"></rect></clipPath></defs>
  </svg>
    <rect x="0" y="0" width="100%" height="100%" fill="transparent" fill-opacity="1"></rect>
    <svg data-v-0dd9719b="" version="1.0" xmlns="http://www.w3.org/2000/svg" xmlns:xlink="http://www.w3.org/1999/xlink" width="100%" height="100%" viewBox="0 0 100 100" preserveAspectRatio="xMidYMid meet" color-interpolation-filters="sRGB" style="margin: auto;"> <rect data-v-0dd9719b="" x="0" y="0" width="100%" height="100%" fill="#ffffff" fill-opacity="1" class="background" style="display: none;"></rect> <rect data-v-0dd9719b="" x="0" y="0" width="100%" height="100%" fill="url(#watermark)" fill-opacity="1" class="watermarklayer" style="display: none;"></rect> <g data-v-0dd9719b="" fill="#333" class="iconsvg-imagesvg"><rect fill="#333" fill-opacity="0" stroke-width="2" x="0" y="0" width="100" height="100" class="image-rect"></rect> <svg viewBox="0 0 60 60" x="0" y="0" width="100" height="100" class="image-svg-svg bn" style="overflow: visible;"><g hollow-target="iconBnFill" mask="url(#2a9c9c6a-1100-451e-ad20-4d9c573c21bf)"><g><svg xmlns="http://www.w3.org/2000/svg" xmlns:xlink="http://www.w3.org/1999/xlink" xml:space="preserve" version="1.1" style="shape-rendering: geometricprecision; text-rendering: geometricprecision; overflow: visible;" viewBox="0 0 249 249" x="0" y="0" fill-rule="evenodd" clip-rule="evenodd" width="60" height="60" filtersec="colorsb5290584267" filter="url(#D41vmoMO88OEb0A56IS4x)"><g transform="scale(1, 1) skewX(0)"><defs><filter id="D41vmoMO88OEb0A56IS4x"><feColorMatrix type="matrix" values="0 0 0 0 0.19921875  0 0 0 0 0.19921875  0 0 0 0 0.19921875  0 0 0 1 0"></feColorMatrix></filter></defs><g><path class="fil0" d="M125 0c68,0 124,56 124,125 0,68 -56,124 -124,124 -69,0 -125,-56 -125,-124 0,-69 56,-125 125,-125z"></path></g></g></svg></g> <g filter="url(#colors3754395481)"><svg xmlns="http://www.w3.org/2000/svg" xmlns:xlink="http://www.w3.org/1999/xlink" viewBox="0 0 78.48000000000002 50.400000000000006" width="45" height="45" x="7.5" y="7.5" class="image-svg-letter"><path transform="translate(-2.8800000000000003 50.400000000000006)" d="M21.89-7.92C16.27-7.92 11.52-12.46 11.52-18.00L11.52-37.08C11.52-40.10 14.04-42.48 16.99-42.48L27.36-42.48L28.08-38.16L34.56-38.16L34.56-50.40L16.27-50.40C8.86-50.40 2.88-44.42 2.88-37.08L2.88-18.22C2.88-8.14 11.02 0 21.17 0L34.56 0L34.56-7.92ZM64.08-43.92L68.40-43.20L68.40-30.96L50.40-30.96L50.40-43.20L54.72-43.92L54.72-50.40L37.44-50.40L37.44-43.92L41.76-43.20L41.76-7.20L37.44-6.48L37.44 0L54.72 0L54.72-6.48L50.40-7.20L50.40-23.04L68.40-23.04L68.40-7.20L64.08-6.48L64.08 0L81.36 0L81.36-6.48L77.04-7.20L77.04-43.20L81.36-43.92L81.36-50.40L64.08-50.40Z"></path></svg></g></g><mask id="2a9c9c6a-1100-451e-ad20-4d9c573c21bf"><g fill="white"><svg xmlns="http://www.w3.org/2000/svg" xmlns:xlink="http://www.w3.org/1999/xlink" xml:space="preserve" version="1.1" style="shape-rendering: geometricprecision; text-rendering: geometricprecision; overflow: visible;" viewBox="0 0 249 249" x="0" y="0" fill-rule="evenodd" clip-rule="evenodd" width="60" height="60" filtersec="colorsb5290584267"><g transform="scale(1, 1) skewX(0)"><defs></defs><g><path d="M125 0c68,0 124,56 124,125 0,68 -56,124 -124,124 -69,0 -125,-56 -125,-124 0,-69 56,-125 125,-125z"></path></g></g></svg></g> <g fill="black"><svg xmlns="http://www.w3.org/2000/svg" xmlns:xlink="http://www.w3.org/1999/xlink" viewBox="0 0 78.48000000000002 50.400000000000006" width="45" height="45" x="7.5" y="7.5" class="image-svg-letter"><path transform="translate(-2.8800000000000003 50.400000000000006)" d="M21.89-7.92C16.27-7.92 11.52-12.46 11.52-18.00L11.52-37.08C11.52-40.10 14.04-42.48 16.99-42.48L27.36-42.48L28.08-38.16L34.56-38.16L34.56-50.40L16.27-50.40C8.86-50.40 2.88-44.42 2.88-37.08L2.88-18.22C2.88-8.14 11.02 0 21.17 0L34.56 0L34.56-7.92ZM64.08-43.92L68.40-43.20L68.40-30.96L50.40-30.96L50.40-43.20L54.72-43.92L54.72-50.40L37.44-50.40L37.44-43.92L41.76-43.20L41.76-7.20L37.44-6.48L37.44 0L54.72 0L54.72-6.48L50.40-7.20L50.40-23.04L68.40-23.04L68.40-7.20L64.08-6.48L64.08 0L81.36 0L81.36-6.48L77.04-7.20L77.04-43.20L81.36-43.92L81.36-50.40L64.08-50.40Z"></path></svg></g></mask></svg> <defs><filter id="colors3754395481"><feColorMatrix type="matrix" values="0 0 0 0 0.19921875  0 0 0 0 0.19921875  0 0 0 0 0.19921875  0 0 0 1 0" class="icon-fecolormatrix"></feColorMatrix></filter> <filter id="colorsf1536343793"><feColorMatrix type="matrix" values="0 0 0 0 0.99609375  0 0 0 0 0.99609375  0 0 0 0 0.99609375  0 0 0 1 0" class="icon-fecolormatrix"></feColorMatrix></filter> <filter id="colorsb5290584267"><feColorMatrix type="matrix" values="0 0 0 0 0  0 0 0 0 0  0 0 0 0 0  0 0 0 1 0" class="icon-fecolormatrix"></feColorMatrix></filter></defs></g><defs v-gra="od"></defs></svg>
  </svg></svg></g></g></svg>