<?xml version="1.0" encoding="utf-8"?>
<!-- Generator: Adobe Illustrator 25.4.1, SVG Export Plug-In . SVG Version: 6.00 Build 0)  -->
<svg version="1.1" id="Layer_1" xmlns="http://www.w3.org/2000/svg" xmlns:xlink="http://www.w3.org/1999/xlink" x="0px" y="0px"
	 viewBox="0 0 150 150" style="enable-background:new 0 0 150 150;" xml:space="preserve">
<style type="text/css">
	.st0{stroke:#000000;stroke-width:1.6927;stroke-miterlimit:6.7708;}
</style>
<g>
	<g>
		<path class="st0" d="M0.2,0.2V150H150V0.2H0.2z M27.5,137.1H12.7v-14.9h14.9L27.5,137.1L27.5,137.1z M27.5,109.8H12.7V95h14.9
			L27.5,109.8L27.5,109.8z M27.5,82.6H12.7V67.7h14.9L27.5,82.6L27.5,82.6z M27.5,55.3H12.7V40.4h14.9L27.5,55.3L27.5,55.3z
			 M27.5,28H12.7V13.1h14.9L27.5,28L27.5,28z M110.8,143.8H39.5V78.2h71.3V143.8z M110.8,72H39.5V6.5h71.3V72z M137.6,137.1h-14.9
			v-14.9h14.9V137.1z M137.6,109.8h-14.9V95h14.9V109.8z M137.6,82.6h-14.9V67.7h14.9V82.6z M137.6,55.3h-14.9V40.4h14.9V55.3z
			 M137.6,28h-14.9V13.1h14.9V28z"/>
	</g>
</g>
</svg>
