<?xml version="1.0" encoding="utf-8"?>
<!-- Generator: Adobe Illustrator 25.4.1, SVG Export Plug-In . SVG Version: 6.00 Build 0)  -->
<svg version="1.1" id="Layer_1" xmlns="http://www.w3.org/2000/svg" xmlns:xlink="http://www.w3.org/1999/xlink" x="0px" y="0px"
	 viewBox="0 0 300 300" style="enable-background:new 0 0 300 300;" xml:space="preserve" stroke="currentColor" fill="currentColor">
<style type="text/css">
	.st0{fill-rule:evenodd;clip-rule:evenodd;}
</style>
<g id="Icons1">
	<g id="external-link">
		<path class="st0" d="M175.6,75.3H43.7C33.4,75.3,25,83.6,25,93.9v162.3c0,10.3,8.4,18.7,18.7,18.7h162.7
			c10.3,0,18.7-8.4,18.7-18.7v-131h25v137.2c0,20.7-16.8,37.5-37.5,37.5H37.5C16.8,300,0,283.2,0,262.5V87.7
			C0,67,16.8,50.2,37.5,50.2h138.1V75.3L175.6,75.3z"/>
		<path class="st0" d="M300,108.2h-25V42.6L100.5,217l-17.7-17.7L257.3,24.9h-65.6v-25H300l0,0L300,108.2L300,108.2z"/>
	</g>
</g>
</svg>
