<svg xmlns="http://www.w3.org/2000/svg" viewBox="0 0 24 24" fill="currentColor" width="24px" height="24px">
  <path d="M12 7c-2.76 0-5 2.24-5 5s2.24 5 5 5 5-2.24 5-5-2.24-5-5-5zM12 9c1.65 0 3 1.35 3 3s-1.35 3-3 3-3-1.35-3-3 1.35-3 3-3zM12 2c-.55 0-1 .45-1 1v2c0 .55.45 1 1 1s1-.45 1-1V3c0-.55-.45-1-1-1zm0 18c-.55 0-1 .45-1 1v2c0 .55.45 1 1 1s1-.45 1-1v-2c0-.55-.45-1-1-1zm-8-9H2c-.55 0-1 .45-1 1s.45 1 1 1h2c.55 0 1-.45 1-1s-.45-1-1-1zm18 0h-2c-.55 0-1 .45-1 1s.45 1 1 1h2c.55 0 1-.45 1-1s-.45-1-1-1zM5.64 5.64c-.39-.39-1.02-.39-1.41 0-.39.39-.39 1.02 0 1.41l1.06 1.06c.39.39 1.02.39 1.41 0s.39-1.02 0-1.41L5.64 5.64zm12.72 12.72c-.39-.39-1.02-.39-1.41 0-.39.39-.39 1.02 0 1.41l1.06 1.06c.39.39 1.02.39 1.41 0 .39-.39.39-1.02 0-1.41l-1.06-1.06zM5.64 18.36c.39-.39.39-1.02 0-1.41-.39-.39-1.02-.39-1.41 0l-1.06 1.06c-.39.39-.39 1.02 0 1.41s1.02.39 1.41 0l1.06-1.06zm12.72-12.72c.39-.39.39-1.02 0-1.41-.39-.39-1.02-.39-1.41 0l-1.06 1.06c-.39.39-.39 1.02 0 1.41s1.02.39 1.41 0l1.06-1.06z"/>
</svg>