<?xml version="1.0" encoding="utf-8"?>
<!-- Generator: Adobe Illustrator 25.4.1, SVG Export Plug-In . SVG Version: 6.00 Build 0)  -->
<svg version="1.1" id="Layer_1" xmlns="http://www.w3.org/2000/svg" xmlns:xlink="http://www.w3.org/1999/xlink" x="0px" y="0px"
	 viewBox="0 0 960 225" style="enable-background:new 0 0 960 225;" xml:space="preserve">
<g transform="translate(0.000000,1024.000000) scale(0.100000,-0.100000)">
	<path d="M3858.9,10227.3c-104-31-160-137-131-246c38-141,222-192,335-92c100,88,81,260-35,319
		C3978.9,10233.3,3906.9,10241.3,3858.9,10227.3z"/>
	<path d="M5958.9,10226.3c-92-26-146-109-137-210c7-77,40-128,102-158c86-41,199-20,257,48c36,44,54,124,39,180
		c-16,58-71,117-128,136C6039.9,10240.3,6009.9,10241.3,5958.9,10226.3z"/>
	<path d="M20.9,10052.3l3-176l158,1l157,2v-704v-703l183,3l182,2l3,701l2,700h155h155v175v175h-500h-500L20.9,10052.3z"/>
	<path d="M1078.9,10221.3c0-21,383-1739,389-1746c4-4,110-6,236-5l229,3l37,170c21,94,108,484,193,868c86,384,156,702,156,707
		c0,6-75,10-195,10c-107,0-195-4-195-9c0-4-11-69-25-142c-62-325-195-1128-195-1175c0-13-4-24-10-24c-5,0-10,13-10,28
		c0,49-170,1071-216,1295l-6,27h-194C1165.9,10228.3,1078.9,10225.3,1078.9,10221.3z"/>
	<path d="M2786.9,9806.3c-1-233-2-627-2-876l-1-452l430-1h430v176v176l-229-1c-125,0-233-2-240-3c-8-1-10,176-7,701l4,702h-191h-192
		L2786.9,9806.3z"/>
	<path d="M5393.9,10033.3c-55-13-126-28-157-35l-58-11v-125v-124h-65h-65v-135v-135h59h60l3-412c3-412,3-413,27-458
		c32-62,58-88,116-118c67-35,204-42,340-17l95,17v133v133l-73-5c-68-5-75-4-102,20l-30,25v339v338l105,1l105,2l3,136l3,136h-111
		h-110v160C5538.9,10085.3,5554.9,10070.3,5393.9,10033.3z"/>
	<path d="M8543.9,9777.3c-16-5-79-16-139-25c-105-17-113-16-200,2c-112,23-266,24-353,1c-138-36-240-116-293-229
		c-40-85-53-155-48-268c5-120,32-183,115-261c32-31,51-55,44-57c-25-8-82-66-106-106c-55-93-51-177,10-244l33-37l-33-22
		c-72-48-115-135-115-235c0-71,16-113,66-167c49-55,102-85,199-113c68-19,103-23,235-23c206,0,363,36,476,108c55,34,121,109,146,165
		c32,69,32,237,2,303c-32,69-89,125-158,158c-104,49-146,55-346,56c-102,1-190,2-196,3c-18,3-24,30-14,57c9,24,13,25,95,25
		c297,0,500,137,545,368c14,70,9,155-14,219c-14,40-14,41,7,47c12,3,37,6,55,6h32v140c0,77-3,140-7,139
		C8576.9,9787.3,8560.9,9782.3,8543.9,9777.3z M8114.9,9487.3c53-27,69-62,69-152c0-67-4-91-25-132c-34-67-73-87-162-83
		c-107,6-142,51-142,188c0,108,20,154,78,182C7978.9,9511.3,8066.9,9510.3,8114.9,9487.3z M8194.9,8459.3c51-23,68-51,60-99
		c-13-81-104-125-256-125c-100,0-158,23-190,76c-25,41-27,123-3,156l16,24l165-7C8115.9,8479.3,8161.9,8473.3,8194.9,8459.3z"/>
	<path d="M4058.9,9770.3c-19-1-98-6-175-10l-140-7l-3-642l-2-643h180h180l2,651c2,358,1,652-2,653S4077.9,9772.3,4058.9,9770.3z"/>
	<path d="M4552.9,9769.3c-131-21-226-79-282-171c-41-70-52-106-59-205c-7-95,14-190,53-247c39-56,118-104,260-159
		c142-54,174-78,174-133c0-66-59-106-157-106c-58,0-174,26-246,55c-34,13-63,22-65,20c-4-4-31-251-32-292c0-6,35-23,78-37
		c208-67,402-70,539-6c76,35,157,108,188,170c64,128,59,314-12,422c-37,55-104,100-240,164c-168,77-186,88-201,117
		c-19,38,5,91,48,106c74,25,230,1,318-50c17-10,32-15,32-11s9,66,20,137c11,72,20,135,20,141c0,14-76,47-155,68
		C4758.9,9771.3,4619.9,9779.3,4552.9,9769.3z"/>
	<path d="M6944.9,9768.3c-65-12-162-60-219-111l-47-41l-2,54c-1,29-2,64-2,77c0,26,17,26-263,5l-83-7v-638v-639h180h180v465v465
		l42,30c102,74,226,60,273-31c13-24,16-105,20-476l4-448l181-3l181-2l-3,512c-4,576-4,573-78,667S7081.9,9791.3,6944.9,9768.3z"/>
	<path d="M9033.9,9772.3c-161-19-279-84-340-188c-67-114-71-305-9-413c45-79,118-122,310-184c144-47,174-68,174-124
		c0-69-36-100-132-111c-65-7-211,16-302,49l-65,24l-5-41c-3-22-8-70-11-106s-8-84-11-107c-6-43-6-43,38-62c148-63,395-85,523-47
		c139,41,233,116,283,224c22,47,27,75,30,162c5,129-15,193-82,262c-57,60-102,85-281,159c-83,33-158,68-168,77c-27,25-19,90,14,115
		c58,42,218,30,364-28c36-15,69-24,72-21s15,61,25,128c23,146,27,138-105,186C9242.9,9767.3,9130.9,9783.3,9033.9,9772.3z"/>
	<path d="M5953.9,9759.3l-110-6l-3-642l-2-643h185h185v650v650l-72-2C6096.9,9765.3,6014.9,9762.3,5953.9,9759.3z"/>
</g>
</svg>
